<svg xmlns="http://www.w3.org/2000/svg" viewBox="112.18 38 512.83 554.87">
<g>
<path d="M 565.26,38.45 L 566.36,38.73 L 568.52,39.64 L 569.57,40.14 L 571.37,41.37 L 573.35,43.42 L 573.60,43.79 L 574.01,44.78 L 574.20,45.31 L 574.50,46.55 L 574.77,47.83 L 574.96,50.76 L 575.00,52.22 L 574.72,55.01 L 574.62,55.66 L 574.33,56.82 L 573.75,58.26 L 573.66,58.42 L 573.35,58.88 L 573.16,59.13 L 572.67,59.76 L 572.14,60.44 L 570.66,62.20 L 569.87,63.13 L 568.01,65.23 L 565.00,68.52 L 563.04,70.62 L 559.51,74.43 L 557.80,76.27 L 554.79,79.57 L 553.34,81.16 L 550.83,83.96 L 549.63,85.30 L 547.62,87.62 L 546.67,88.72 L 545.14,90.56 L 544.44,91.42 L 543.39,92.79 L 542.92,93.42 L 542.34,94.34 L 542.00,95.20 L 542.00,95.32 L 542.28,95.81 L 542.47,96.08 L 543.09,96.86 L 543.44,97.27 L 544.35,98.29 L 544.84,98.82 L 545.99,100.03 L 547.19,101.29 L 550.12,104.20 L 551.64,105.69 L 554.91,108.81 L 556.56,110.36 L 559.80,113.34 L 561.38,114.77 L 564.22,117.24 L 564.88,117.80 L 566.06,118.78 L 566.63,119.24 L 567.58,119.97 L 568.02,120.30 L 568.69,120.73 L 569.33,121.00 L 569.44,121.00 L 569.81,120.80 L 570.03,120.67 L 570.61,120.23 L 571.23,119.74 L 572.97,118.14 L 573.90,117.25 L 576.07,115.04 L 579.59,111.25 L 580.89,109.80 L 583.31,107.11 L 584.50,105.80 L 586.70,103.38 L 587.78,102.20 L 589.78,100.04 L 590.76,98.98 L 592.57,97.06 L 593.45,96.12 L 595.08,94.42 L 595.88,93.60 L 597.35,92.12 L 598.78,90.69 L 601.22,88.43 L 602.38,87.38 L 604.34,85.82 L 605.28,85.11 L 606.88,84.15 L 607.65,83.73 L 609.02,83.26 L 610.90,83.02 L 611.35,83.02 L 612.93,83.37 L 613.79,83.58 L 615.79,84.21 L 616.79,84.55 L 618.66,85.29 L 620.77,86.33 L 620.98,86.47 L 621.45,86.97 L 621.69,87.26 L 622.17,88.00 L 622.65,88.80 L 623.54,90.84 L 623.96,91.89 L 624.58,94.08 L 625.00,96.97 L 625.00,98.13 L 624.36,100.54 L 624.14,101.16 L 623.49,102.49 L 623.13,103.17 L 622.18,104.66 L 621.67,105.42 L 620.39,107.11 L 619.70,107.99 L 618.05,109.94 L 617.17,110.95 L 615.12,113.21 L 611.54,117.00 L 609.57,119.06 L 606.12,122.70 L 604.47,124.45 L 601.65,127.52 L 600.31,128.99 L 598.07,131.53 L 597.02,132.74 L 595.32,134.80 L 594.54,135.77 L 593.35,137.40 L 592.82,138.17 L 592.10,139.42 L 591.79,140.00 L 591.50,140.92 L 591.49,141.98 L 591.58,142.25 L 592.21,143.12 L 592.58,143.59 L 593.68,144.75 L 594.28,145.35 L 595.71,146.66 L 598.06,148.63 L 598.88,149.27 L 600.37,150.53 L 601.08,151.14 L 602.26,152.25 L 602.79,152.77 L 603.53,153.60 L 604.00,154.40 L 604.00,154.48 L 603.74,154.89 L 603.57,155.13 L 602.99,155.85 L 602.66,156.25 L 601.80,157.24 L 601.34,157.77 L 600.23,159.00 L 599.06,160.28 L 596.15,163.37 L 591.16,168.50 L 589.84,169.84 L 587.52,172.15 L 586.41,173.26 L 584.43,175.17 L 583.48,176.08 L 581.78,177.63 L 580.96,178.38 L 579.46,179.64 L 578.01,180.85 L 575.41,182.63 L 571.41,184.84 L 569.51,185.76 L 566.02,187.47 L 565.24,187.86 L 563.98,188.48 L 562.76,189.09 L 562.29,189.34 L 560.86,189.73 L 558.71,190.00 L 558.08,190.00 L 556.75,190.33 L 555.28,191.12 L 555.19,191.21 L 554.77,191.38 L 554.52,191.46 L 553.80,191.60 L 553.40,191.67 L 552.37,191.78 L 551.82,191.84 L 550.49,191.93 L 549.79,191.97 L 548.15,192.03 L 547.30,192.06 L 545.36,192.10 L 544.36,192.11 L 542.12,192.13 L 538.43,192.11 L 522.70,191.99 L 517.60,196.57 L 516.98,197.13 L 515.50,198.43 L 514.73,199.11 L 512.95,200.65 L 512.02,201.45 L 509.94,203.23 L 508.86,204.15 L 506.48,206.17 L 505.25,207.21 L 502.56,209.47 L 501.18,210.63 L 498.19,213.12 L 496.66,214.40 L 493.37,217.13 L 488.10,221.50 L 487.60,221.91 L 486.41,222.90 L 485.79,223.42 L 484.40,224.58 L 482.96,225.78 L 479.69,228.54 L 478.02,229.95 L 474.58,232.86 L 469.67,237.03 L 468.13,238.34 L 465.02,240.97 L 463.48,242.25 L 460.61,244.63 L 459.23,245.75 L 456.93,247.60 L 456.41,248.02 L 455.53,248.71 L 454.50,249.49 L 453.95,249.90 L 452.55,250.99 L 451.81,251.57 L 450.18,252.89 L 445.42,256.96 L 444.72,257.58 L 442.80,259.27 L 441.78,260.17 L 439.43,262.20 L 432.17,268.44 L 431.05,269.39 L 429.00,271.18 L 428.02,272.04 L 426.40,273.53 L 425.66,274.22 L 424.64,275.23 L 424.44,275.44 L 424.17,275.76 L 424.00,276.02 L 423.66,275.59 L 422.97,275.00 L 422.76,275.00 L 422.22,275.39 L 422.03,275.97 L 422.02,276.32 L 422.06,277.07 L 422.17,277.43 L 422.44,278.11 L 422.67,278.33 L 423.17,278.68 L 423.53,278.80 L 424.31,279.00 L 424.68,279.00 L 425.29,278.92 L 425.50,278.76 L 425.51,278.61 L 425.46,278.26 L 425.34,278.00 L 425.12,277.60 L 425.75,278.26 L 425.93,278.42 L 426.48,278.70 L 426.80,278.84 L 427.70,279.09 L 428.21,279.21 L 429.55,279.44 L 430.28,279.55 L 432.14,279.76 L 433.14,279.86 L 435.60,280.07 L 436.92,280.17 L 440.06,280.38 L 441.73,280.49 L 445.66,280.71 L 452.50,281.06 L 455.94,281.23 L 462.26,281.59 L 463.77,281.68 L 466.56,281.85 L 467.92,281.94 L 470.35,282.11 L 471.51,282.19 L 473.50,282.35 L 474.44,282.43 L 475.93,282.57 L 476.60,282.63 L 477.51,282.75 L 478.15,282.90 L 478.20,282.94 L 478.10,283.18 L 478.02,283.33 L 477.70,283.76 L 477.31,284.24 L 475.96,285.67 L 475.20,286.45 L 473.23,288.35 L 469.77,291.50 L 468.52,292.60 L 465.50,295.31 L 463.93,296.72 L 460.56,299.77 L 458.87,301.30 L 455.56,304.32 L 451.11,308.41 L 449.79,309.63 L 446.85,312.30 L 445.36,313.64 L 442.34,316.30 L 440.86,317.60 L 438.13,319.95 L 437.48,320.50 L 436.30,321.49 L 434.75,322.77 L 433.82,323.52 L 432.13,324.95 L 431.32,325.64 L 429.98,326.85 L 429.37,327.41 L 428.53,328.27 L 428.00,329.00 L 428.00,329.10 L 427.47,329.75 L 427.12,330.13 L 426.02,331.22 L 425.41,331.81 L 423.87,333.21 L 421.25,335.49 L 420.39,336.23 L 418.16,338.15 L 416.97,339.19 L 414.17,341.64 L 412.72,342.92 L 409.47,345.78 L 407.81,347.26 L 404.24,350.43 L 400.61,353.67 L 392.85,360.64 L 381.41,371.00 L 380.84,371.52 L 379.47,372.76 L 378.74,373.42 L 377.10,374.90 L 375.39,376.43 L 371.43,379.97 L 369.40,381.78 L 365.15,385.55 L 358.99,391.00 L 357.04,392.72 L 352.84,396.46 L 350.73,398.34 L 346.58,402.08 L 344.56,403.91 L 340.95,407.21 L 340.10,407.99 L 338.60,409.38 L 336.68,411.18 L 335.67,412.13 L 334.02,413.70 L 333.25,414.43 L 332.04,415.62 L 331.49,416.18 L 330.67,417.07 L 330.31,417.48 L 329.84,418.14 L 329.64,418.44 L 329.47,418.95 L 329.44,419.08 L 329.28,418.36 L 329.45,418.07 L 329.46,417.47 L 328.87,417.48 L 328.30,417.69 L 326.83,418.43 L 326.11,419.02 L 325.89,419.36 L 325.54,420.06 L 325.51,420.45 L 325.54,421.24 L 325.70,421.66 L 325.92,422.02 L 326.14,422.18 L 326.64,422.48 L 326.96,422.61 L 328.42,423.00 L 329.26,423.00 L 330.95,422.96 L 331.57,422.86 L 331.65,422.73 L 331.67,422.43 L 331.49,422.16 L 330.98,421.53 L 330.56,421.06 L 330.56,421.06 L 330.66,421.18 L 331.13,421.59 L 331.39,421.79 L 332.08,422.10 L 332.48,422.24 L 333.62,422.47 L 334.26,422.57 L 336.07,422.72 L 337.07,422.78 L 339.77,422.87 L 340.51,422.89 L 342.19,422.92 L 343.06,422.94 L 345.04,422.96 L 346.07,422.97 L 348.38,422.98 L 349.57,422.99 L 352.23,422.99 L 353.60,423.00 L 356.64,423.00 L 361.65,423.00 L 363.67,423.00 L 367.55,423.02 L 369.46,423.03 L 373.05,423.06 L 374.80,423.08 L 378.03,423.14 L 379.59,423.17 L 382.38,423.24 L 383.71,423.27 L 385.97,423.36 L 387.03,423.40 L 388.68,423.49 L 389.43,423.54 L 390.40,423.65 L 391.00,423.81 L 391.00,423.86 L 390.80,424.12 L 390.66,424.27 L 390.21,424.71 L 389.70,425.18 L 388.06,426.56 L 387.15,427.31 L 384.87,429.10 L 380.98,432.06 L 379.24,433.36 L 375.99,435.77 L 374.41,436.94 L 371.48,439.12 L 370.06,440.17 L 367.44,442.12 L 366.16,443.06 L 363.83,444.80 L 362.69,445.64 L 360.62,447.17 L 359.62,447.92 L 357.80,449.27 L 356.92,449.92 L 355.33,451.10 L 354.56,451.66 L 353.18,452.68 L 351.85,453.66 L 349.75,455.20 L 348.78,455.91 L 347.30,456.99 L 346.62,457.48 L 345.61,458.20 L 344.45,459.00 L 344.15,459.21 L 343.31,459.80 L 342.86,460.12 L 341.83,460.87 L 338.62,463.25 L 337.62,464.01 L 335.00,466.00 L 331.38,468.75 L 330.39,469.51 L 328.17,471.13 L 327.63,471.52 L 326.67,472.20 L 325.52,473.00 L 325.21,473.21 L 324.19,473.94 L 323.63,474.35 L 322.24,475.38 L 317.51,479.00 L 315.92,480.24 L 312.96,482.47 L 312.30,482.97 L 311.22,483.76 L 310.14,484.50 L 309.92,484.64 L 309.20,485.14 L 308.81,485.43 L 307.85,486.16 L 304.59,488.75 L 303.50,489.64 L 301.47,491.05 L 301.01,491.34 L 300.26,491.74 L 299.52,492.00 L 299.36,492.00 L 298.81,492.28 L 298.51,492.45 L 297.73,493.03 L 295.00,495.50 L 294.07,496.46 L 292.20,497.97 L 291.76,498.29 L 291.03,498.72 L 290.22,499.00 L 290.03,499.00 L 289.15,499.47 L 288.64,499.78 L 287.25,500.76 L 286.52,501.31 L 284.81,502.67 L 282.08,505.00 L 281.15,505.82 L 279.40,507.33 L 278.55,508.05 L 277.08,509.24 L 276.40,509.78 L 275.38,510.53 L 274.55,511.00 L 274.50,511.00 L 274.11,511.21 L 273.88,511.35 L 273.17,511.81 L 272.78,512.07 L 271.78,512.76 L 271.25,513.13 L 270.00,514.01 L 268.69,514.94 L 265.50,517.27 L 260.15,521.25 L 258.27,522.66 L 254.73,525.31 L 253.02,526.58 L 250.05,528.78 L 249.35,529.29 L 248.14,530.19 L 247.56,530.61 L 246.60,531.30 L 246.15,531.62 L 245.50,532.09 L 244.89,532.50 L 244.66,532.64 L 243.67,533.33 L 243.10,533.73 L 241.57,534.85 L 240.75,535.44 L 238.87,536.84 L 235.88,539.09 L 234.86,539.86 L 232.22,541.84 L 230.83,542.88 L 227.73,545.19 L 226.15,546.36 L 222.96,548.72 L 218.50,552.02 L 215.23,554.42 L 208.52,559.35 L 205.21,561.80 L 199.00,566.38 L 197.52,567.48 L 194.79,569.50 L 193.47,570.48 L 191.14,572.21 L 190.03,573.03 L 188.20,574.40 L 186.13,575.95 L 185.20,576.65 L 183.09,578.19 L 182.58,578.56 L 181.65,579.22 L 180.52,580.00 L 180.21,580.21 L 179.19,580.94 L 178.63,581.35 L 177.24,582.38 L 172.51,586.00 L 171.32,586.93 L 169.34,588.47 L 168.42,589.19 L 166.93,590.32 L 166.25,590.85 L 165.20,591.63 L 164.72,591.98 L 164.05,592.44 L 163.75,592.63 L 163.40,592.81 L 163.25,592.86 L 163.16,592.79 L 163.11,592.67 L 163.56,591.84 L 163.63,591.73 L 164.21,591.03 L 164.57,590.61 L 165.70,589.36 L 166.33,588.67 L 167.94,586.92 L 168.80,585.99 L 170.83,583.82 L 171.90,582.68 L 174.28,580.16 L 175.51,578.86 L 178.19,576.04 L 179.56,574.60 L 182.46,571.57 L 187.00,566.85 L 190.09,563.64 L 196.60,556.88 L 199.85,553.51 L 206.12,546.99 L 207.64,545.42 L 210.50,542.44 L 211.90,540.99 L 214.45,538.33 L 215.68,537.06 L 217.83,534.82 L 220.50,532.04 L 221.26,531.25 L 223.00,529.44 L 223.90,528.50 L 225.88,526.44 L 227.91,524.33 L 232.39,519.67 L 234.66,517.31 L 239.22,512.58 L 245.54,506.03 L 247.47,504.04 L 251.61,499.75 L 253.68,497.59 L 257.75,493.37 L 258.74,492.34 L 260.63,490.38 L 261.55,489.42 L 263.25,487.65 L 264.08,486.79 L 265.54,485.26 L 267.39,483.32 L 275.20,475.15 L 273.89,473.39 L 274.14,473.56 L 274.88,474.00 L 275.12,474.00 L 275.74,473.56 L 276.00,472.91 L 276.00,472.50 L 275.40,471.43 L 274.49,471.00 L 273.88,471.00 L 272.85,471.06 L 272.45,471.17 L 272.38,471.28 L 272.34,471.54 L 272.35,471.55 L 271.43,470.80 L 271.04,470.55 L 270.10,470.12 L 269.60,469.92 L 268.37,469.59 L 267.71,469.43 L 266.10,469.15 L 265.24,469.02 L 263.16,468.79 L 262.06,468.68 L 259.44,468.47 L 254.80,468.16 L 253.32,468.07 L 250.56,467.82 L 249.23,467.69 L 246.95,467.40 L 245.89,467.25 L 244.33,466.94 L 244.00,466.86 L 243.52,466.71 L 243.11,466.50 L 242.98,466.38 L 242.93,465.98 L 242.93,465.76 L 243.16,465.12 L 243.32,464.77 L 243.88,463.84 L 244.20,463.34 L 245.13,462.07 L 245.64,461.38 L 246.97,459.71 L 247.69,458.82 L 249.47,456.70 L 250.42,455.57 L 252.69,452.95 L 256.67,448.38 L 258.11,446.75 L 261.23,443.19 L 262.83,441.37 L 266.20,437.51 L 269.62,433.60 L 276.88,425.27 L 280.53,421.08 L 287.77,412.74 L 289.56,410.69 L 293.01,406.70 L 297.94,401.00 L 299.78,398.87 L 303.59,394.47 L 305.49,392.29 L 309.09,388.14 L 309.96,387.15 L 311.59,385.28 L 312.38,384.38 L 313.81,382.75 L 314.49,381.96 L 315.67,380.62 L 317.11,379.00 L 317.90,378.11 L 319.89,375.84 L 320.92,374.65 L 323.19,372.03 L 324.33,370.70 L 326.59,368.05 L 329.69,364.38 L 330.63,363.27 L 332.79,360.73 L 333.89,359.43 L 336.19,356.78 L 337.32,355.46 L 339.47,353.00 L 342.24,349.88 L 343.46,348.52 L 345.71,346.01 L 346.81,344.78 L 348.82,342.52 L 349.80,341.41 L 351.57,339.39 L 352.43,338.41 L 353.98,336.62 L 354.73,335.75 L 356.06,334.17 L 356.70,333.40 L 357.83,332.02 L 358.91,330.69 L 360.50,328.56 L 361.21,327.58 L 362.11,326.07 L 362.48,325.38 L 362.77,324.38 L 362.85,323.93 L 362.61,323.32 L 361.75,322.73 L 361.66,322.70 L 361.11,322.65 L 360.77,322.63 L 359.75,322.60 L 359.19,322.58 L 357.77,322.57 L 357.01,322.56 L 355.24,322.56 L 354.32,322.57 L 352.25,322.58 L 351.19,322.59 L 348.88,322.63 L 341.35,322.79 L 338.71,322.86 L 333.77,322.93 L 331.40,322.96 L 327.32,322.95 L 326.38,322.94 L 324.73,322.92 L 323.95,322.90 L 322.67,322.85 L 322.09,322.83 L 321.24,322.76 L 320.51,322.64 L 320.15,322.51 L 319.81,322.12 L 319.71,321.90 L 319.94,321.20 L 320.13,320.80 L 321.01,319.62 L 321.28,319.28 L 321.95,318.49 L 323.16,317.09 L 323.52,316.68 L 324.41,315.68 L 324.87,315.15 L 325.95,313.93 L 327.07,312.66 L 329.76,309.62 L 331.15,308.04 L 334.19,304.60 L 335.73,302.85 L 338.87,299.29 L 340.43,297.53 L 343.41,294.15 L 344.86,292.51 L 347.42,289.59 L 348.03,288.91 L 349.12,287.67 L 349.64,287.08 L 350.53,286.06 L 350.95,285.59 L 351.63,284.82 L 352.35,284.00 L 353.51,282.68 L 355.68,280.21 L 356.74,279.00 L 358.72,276.74 L 360.66,274.54 L 364.02,270.71 L 365.62,268.89 L 368.39,265.75 L 369.71,264.25 L 371.98,261.67 L 373.07,260.45 L 374.94,258.33 L 375.84,257.31 L 377.42,255.54 L 381.50,250.98 L 382.21,250.20 L 383.82,248.40 L 384.65,247.47 L 386.49,245.41 L 387.44,244.35 L 389.48,242.05 L 390.53,240.87 L 392.76,238.36 L 395.03,235.79 L 400.04,230.12 L 402.60,227.21 L 408.07,220.99 L 410.84,217.83 L 416.59,211.27 L 419.48,207.96 L 425.34,201.26 L 428.27,197.90 L 434.07,191.24 L 442.50,181.53 L 443.05,180.90 L 444.36,179.40 L 445.04,178.62 L 446.57,176.87 L 448.15,175.08 L 451.75,171.02 L 453.58,168.95 L 457.36,164.71 L 462.75,158.69 L 464.21,157.07 L 466.68,154.29 L 467.84,152.97 L 469.75,150.74 L 470.64,149.68 L 472.04,147.93 L 472.67,147.11 L 473.60,145.76 L 474.01,145.14 L 474.52,144.14 L 474.72,143.68 L 474.84,142.96 L 474.86,142.62 L 474.65,142.11 L 474.00,141.50 L 473.92,141.45 L 473.78,141.02 L 473.71,140.76 L 473.58,139.94 L 473.52,139.48 L 473.42,138.33 L 473.37,137.72 L 473.28,136.29 L 473.20,134.81 L 473.09,131.26 L 473.04,129.43 L 473.01,125.53 L 473.00,123.59 L 473.05,119.81 L 473.08,117.98 L 473.20,114.78 L 473.24,114.03 L 473.33,112.74 L 473.37,112.12 L 473.48,111.13 L 473.54,110.68 L 473.67,110.05 L 473.89,109.57 L 474.01,109.49 L 474.28,109.09 L 474.42,108.85 L 474.70,108.17 L 475.42,105.58 L 475.59,104.69 L 476.19,102.71 L 476.54,101.68 L 477.49,99.46 L 478.01,98.33 L 479.28,95.90 L 479.95,94.67 L 481.51,92.08 L 482.33,90.77 L 484.17,88.05 L 485.12,86.68 L 487.21,83.88 L 494.30,75.31 L 495.69,73.75 L 498.26,70.92 L 499.48,69.56 L 501.55,67.32 L 502.03,66.81 L 502.85,65.94 L 503.23,65.53 L 503.84,64.89 L 504.12,64.61 L 504.51,64.23 L 504.79,64.00 L 504.84,64.00 L 505.52,64.48 L 505.94,64.79 L 507.22,65.79 L 507.92,66.34 L 509.65,67.73 L 512.54,70.10 L 513.55,70.94 L 515.47,72.44 L 516.40,73.15 L 518.01,74.30 L 518.76,74.82 L 519.88,75.50 L 520.82,75.85 L 520.88,75.82 L 521.32,75.43 L 521.59,75.17 L 522.41,74.35 L 522.87,73.89 L 524.02,72.70 L 524.64,72.06 L 526.09,70.54 L 526.84,69.74 L 528.54,67.94 L 529.41,67.01 L 531.30,64.98 L 537.49,58.26 L 538.48,57.18 L 540.31,55.19 L 541.21,54.22 L 542.87,52.44 L 544.48,50.70 L 547.26,47.82 L 548.58,46.47 L 550.84,44.27 L 551.91,43.25 L 553.76,41.66 L 554.64,40.94 L 556.18,39.86 L 556.92,39.38 L 558.26,38.74 L 558.91,38.46 L 560.16,38.16 L 562.03,38.00 L 563.05,38.00 Z" fill="rgba(51,51,53,1)"/>
<path d="M 329.45,418.07 L 329.28,418.36 L 329.51,419.39 L 330.56,421.06 L 330.98,421.53 L 331.49,422.16 L 331.67,422.43 L 331.65,422.73 L 331.57,422.86 L 330.95,422.96 L 329.26,423.00 L 328.42,423.00 L 326.96,422.61 L 326.64,422.48 L 326.14,422.18 L 325.92,422.02 L 325.70,421.66 L 325.54,421.24 L 325.51,420.45 L 325.54,420.06 L 325.89,419.36 L 326.11,419.02 L 326.83,418.43 L 328.30,417.69 L 328.87,417.48 L 329.46,417.47 M 423.66,275.59 L 424.77,277.00 L 425.02,277.41 L 425.34,278.00 L 425.46,278.26 L 425.51,278.61 L 425.50,278.76 L 425.29,278.92 L 424.68,279.00 L 424.31,279.00 L 423.53,278.80 L 423.17,278.68 L 422.67,278.33 L 422.44,278.11 L 422.17,277.43 L 422.06,277.07 L 422.02,276.32 L 422.03,275.97 L 422.22,275.39 L 422.76,275.00 L 422.97,275.00 Z" fill="rgba(72,72,74,1)"/>
<path d="M 545.53,490.01 L 545.93,490.62 L 546.45,491.86 L 546.67,492.51 L 546.88,494.03 L 546.99,497.00 L 546.99,498.61 L 546.60,501.22 L 546.32,502.46 L 545.85,503.34 L 546.32,502.46 L 546.60,501.22 L 546.98,498.61 L 546.98,497.00 L 546.60,493.06 L 545.86,490.70 L 545.15,489.48 M 534.69,475.44 L 537.44,479.29 L 538.40,480.73 L 540.58,483.71 L 539.96,483.06 L 538.22,481.26 L 537.21,480.24 L 535.04,477.66 L 534.60,476.95 L 534.50,476.68 L 534.37,476.21 L 534.45,476.09 L 534.37,475.10 L 534.13,474.73 M 531.01,471.02 L 531.29,471.54 L 532.00,472.52 L 532.98,473.49 L 533.11,473.57 L 533.55,474.04 L 533.43,473.95 L 532.18,472.81 L 531.54,472.11 L 531.33,471.76 L 530.97,471.06 L 530.90,470.68 L 530.86,470.31 M 533.20,464.93 L 533.23,464.89 L 533.33,464.74 M 535.03,462.34 L 535.19,462.12 L 534.73,462.77 M 242.61,443.46 L 242.47,443.64 L 242.70,443.11 M 240.26,436.90 L 241.67,438.86 L 242.27,439.79 L 242.56,440.65 L 242.19,439.95 L 241.81,439.35 L 240.98,438.08 L 240.47,437.36 L 239.48,436.03 M 216.19,400.46 L 218.36,405.00 L 218.93,406.18 L 220.25,408.67 L 220.94,409.94 L 222.47,412.58 L 224.04,415.23 L 227.64,420.70 L 229.48,423.43 L 233.38,428.66 L 234.33,429.81 L 231.32,426.53 L 229.75,424.98 L 227.10,422.07 L 226.49,421.26 L 226.30,420.94 L 226.00,420.39 L 226.00,420.24 L 225.76,419.60 L 225.39,419.01 L 225.12,418.65 L 223.82,417.12 L 223.00,416.34 L 220.86,413.63 L 220.37,412.70 L 220.23,412.27 L 220.00,411.45 L 220.00,411.10 L 219.81,409.77 L 219.52,408.59 L 219.30,407.91 L 218.28,405.00 L 217.63,403.60 L 215.24,398.45 L 215.15,398.27 M 532.70,393.21 L 532.32,394.82 L 532.20,395.56 L 532.01,396.96 L 532.01,397.51 L 531.90,399.39 L 531.71,400.43 L 531.56,400.85 L 531.22,401.62 L 530.98,401.92 L 530.47,402.48 L 530.14,402.68 L 528.65,404.37 L 527.91,405.86 L 528.39,404.66 L 529.98,400.30 L 530.52,398.76 L 531.61,395.73 L 532.15,394.26 L 533.16,391.58 L 533.64,390.31 L 534.23,388.81 M 534.70,387.73 L 534.45,388.27 L 534.63,387.83 L 534.94,387.10 L 535.00,386.97 M 209.15,384.31 L 209.25,384.66 L 209.60,385.65 L 209.79,386.19 L 210.34,387.54 L 210.59,388.16 L 210.09,386.99 L 209.87,386.44 L 209.49,385.44 L 209.36,385.06 L 209.14,384.37 L 209.08,384.12 L 209.01,383.73 M 543.85,330.65 L 543.73,336.33 L 543.55,339.35 L 543.11,345.51 L 542.79,348.66 L 542.08,354.99 L 541.63,358.12 L 541.11,361.55 L 541.67,357.55 L 542.08,354.41 L 542.76,348.04 L 543.07,344.88 L 543.50,338.74 L 543.68,335.74 L 543.81,330.21 L 543.82,329.60 M 215.62,226.54 L 214.36,228.32 L 212.22,231.46 L 211.73,232.20 L 210.89,233.50 L 210.49,234.12 L 209.87,235.15 L 209.59,235.62 L 209.23,236.33 L 209.00,236.98 L 209.15,236.42 L 209.40,235.87 L 209.58,235.52 L 210.50,233.93 L 211.16,232.91 L 212.62,230.71 L 213.49,229.47 L 215.31,226.91 L 216.30,225.56 L 216.94,224.72 M 252.66,188.40 L 251.14,189.66 L 247.76,192.63 L 246.03,194.17 L 242.38,197.52 L 240.55,199.22 L 236.86,202.76 L 235.03,204.53 L 231.51,208.03 L 229.79,209.76 L 226.65,213.04 L 225.14,214.63 L 222.60,217.46 L 222.27,217.83 L 222.39,217.69 L 224.30,215.38 L 225.15,214.42 L 226.76,212.66 L 227.39,212.05 L 229.94,209.24 L 230.53,208.41 L 230.72,208.08 L 231.00,207.48 L 231.00,207.30 L 231.34,206.43 L 231.87,205.64 L 232.25,205.16 L 234.03,203.10 L 235.11,202.04 L 237.32,199.97 L 238.29,199.22 L 239.21,198.55 L 239.58,198.33 L 240.26,198.00 L 240.47,198.00 L 241.89,197.37 L 243.07,196.45 L 243.60,195.86 L 244.15,195.31 L 244.70,194.82 L 245.06,194.51 L 246.68,193.15 L 247.71,192.31 L 249.92,190.54 L 251.16,189.57 L 252.72,188.35 M 265.28,179.13 L 265.14,179.21 L 264.71,179.48 L 264.23,179.80 L 262.77,180.80 L 262.08,181.29 L 263.82,180.04 L 264.43,179.64 L 264.99,179.27 L 265.18,179.17 L 265.50,179.00 L 265.52,179.00 M 229.37,121.46 L 228.91,121.82 L 226.96,123.33 L 226.00,123.99 L 222.78,126.43 L 221.70,127.33 L 221.22,127.76 L 220.31,128.59 L 219.96,128.94 L 217.37,131.16 L 215.45,132.53 L 214.71,132.92 L 213.05,134.00 L 214.79,132.41 L 215.29,131.91 L 216.63,130.73 L 217.34,130.12 L 218.96,128.83 L 223.94,125.26 L 225.47,124.29 L 228.31,122.26 L 228.95,121.79 L 229.40,121.43 M 234.75,116.72 L 235.20,116.38 L 235.23,116.37 M 237.14,115.29 L 237.64,115.00 L 237.69,114.98 M 237.98,114.83 L 238.88,114.37 L 238.90,114.37 M 241.14,113.60 L 241.35,113.53 L 241.35,113.53 M 524.00,414.08 L 524.00,414.43 L 523.71,415.54 L 523.27,416.00 L 523.71,415.44 M 524.31,412.63 L 525.04,411.82 L 525.11,411.80 L 525.33,411.52 L 525.45,411.35 L 525.75,410.80 L 526.07,410.19 L 526.92,408.29 L 527.37,407.25 L 527.84,406.05 L 527.69,406.80 L 526.82,409.34 L 525.98,410.88 L 525.55,411.31 L 524.46,412.86 L 524.00,414.00 L 524.00,413.56 M 209.01,136.74 L 209.70,136.31 L 210.35,136.02 L 210.47,136.02 L 210.96,135.73 L 211.25,135.55 L 212.01,134.95 L 212.17,134.80 L 212.00,135.05 L 212.00,135.17 L 211.63,135.76 L 211.09,136.02 L 210.75,136.02 L 209.95,136.31 L 209.17,136.74 L 208.69,137.06 L 206.60,138.57 L 208.57,137.06 Z" fill="rgba(231,97,50,1)"/>
<path d="M 275.40,471.43 L 276.00,472.50 L 276.00,472.91 L 275.74,473.56 L 275.12,474.00 L 274.88,474.00 L 274.14,473.56 L 273.75,473.29 L 273.00,472.50 L 272.74,472.19 L 272.45,471.74 L 272.34,471.54 L 272.38,471.28 L 272.45,471.17 L 272.85,471.06 L 273.88,471.00 L 274.49,471.00 Z" fill="rgba(230,122,79,1)"/>
<path d="M 357.00,582.37 L 356.90,582.34 L 356.22,582.23 L 355.81,582.16 L 354.58,581.98 L 353.90,581.87 L 352.18,581.63 L 351.27,581.50 L 349.14,581.20 L 348.03,581.05 L 345.56,580.71 L 344.29,580.53 L 341.55,580.16 L 338.76,579.78 L 332.70,578.98 L 329.63,578.57 L 323.44,577.76 L 320.39,577.36 L 314.66,576.62 L 313.28,576.44 L 310.72,576.12 L 309.47,575.96 L 307.22,575.68 L 306.14,575.55 L 304.28,575.33 L 302.00,575.06 L 300.13,574.86 L 297.00,574.36 L 295.53,574.08 L 293.15,573.35 L 292.05,572.93 L 290.35,571.83 L 289.58,571.21 L 288.48,569.60 L 288.00,568.71 L 287.44,566.45 L 287.22,565.22 L 287.11,562.17 L 287.11,560.54 L 287.39,556.57 L 287.48,555.52 L 287.72,553.21 L 288.16,549.44 L 288.35,547.91 L 288.61,545.33 L 288.73,544.11 L 288.80,542.08 L 288.81,541.13 L 288.66,539.54 L 288.54,538.79 L 288.10,537.55 L 287.85,536.95 L 287.08,535.94 L 286.65,535.46 L 285.52,534.58 L 284.90,534.14 L 283.34,533.29 L 280.49,531.92 L 279.60,531.52 L 277.97,530.71 L 277.19,530.32 L 275.91,529.59 L 275.32,529.24 L 274.51,528.68 L 274.00,528.11 L 274.00,527.98 L 274.21,527.62 L 274.35,527.43 L 274.80,526.96 L 276.72,525.45 L 277.47,524.95 L 278.95,523.93 L 280.47,522.80 L 280.59,522.71 L 281.01,522.38 L 281.26,522.19 L 281.94,521.67 L 282.32,521.40 L 283.25,520.71 L 283.75,520.34 L 284.92,519.48 L 285.54,519.03 L 286.94,518.01 L 287.67,517.48 L 289.30,516.31 L 294.94,512.25 L 296.83,510.89 L 300.69,507.79 L 301.56,507.07 L 302.94,505.85 L 303.24,505.58 L 303.71,505.12 L 304.15,504.61 L 304.25,504.48 L 305.00,504.40 L 305.46,504.39 L 306.84,504.55 L 307.59,504.65 L 309.45,505.02 L 312.65,505.79 L 314.28,506.23 L 317.22,507.02 L 318.64,507.40 L 321.22,508.08 L 322.46,508.41 L 324.72,509.00 L 325.81,509.28 L 327.80,509.78 L 329.74,510.26 L 333.07,510.98 L 334.68,511.30 L 337.68,511.76 L 339.17,511.96 L 342.27,512.22 L 343.87,512.32 L 347.50,512.43 L 348.46,512.45 L 350.56,512.48 L 351.64,512.49 L 354.03,512.50 L 355.26,512.50 L 357.98,512.50 L 362.50,512.50 L 364.95,512.50 L 369.22,512.48 L 371.25,512.47 L 374.77,512.43 L 376.44,512.40 L 379.31,512.33 L 380.68,512.28 L 383.01,512.17 L 384.12,512.11 L 386.02,511.95 L 386.93,511.86 L 388.50,511.65 L 392.50,510.80 L 393.32,510.56 L 395.42,510.00 L 396.52,509.72 L 398.94,509.11 L 400.16,508.80 L 402.61,508.22 L 406.00,507.45 L 408.00,507.01 L 412.29,505.91 L 414.44,505.34 L 418.55,504.13 L 420.52,503.53 L 423.84,502.38 L 424.59,502.11 L 425.83,501.61 L 427.24,500.95 L 427.71,500.69 L 429.04,500.28 L 430.93,500.00 L 431.46,500.00 L 432.47,499.74 L 433.43,499.11 L 433.51,498.99 L 434.32,498.44 L 434.81,498.12 L 436.32,497.26 L 437.14,496.80 L 439.14,495.75 L 442.49,494.06 L 443.66,493.49 L 446.38,492.06 L 447.77,491.31 L 450.69,489.67 L 452.14,488.85 L 454.90,487.21 L 458.47,484.95 L 459.50,484.27 L 461.46,483.03 L 462.40,482.44 L 464.06,481.46 L 464.83,481.01 L 465.99,480.39 L 466.98,480.00 L 467.26,480.00 L 467.70,479.76 L 468.00,479.17 L 468.00,479.05 L 468.21,478.73 L 468.35,478.56 L 468.79,478.17 L 470.70,476.92 L 471.19,476.67 L 472.56,475.71 L 473.30,475.17 L 475.12,473.70 L 476.07,472.91 L 478.24,471.03 L 479.35,470.04 L 481.77,467.82 L 484.23,465.54 L 489.47,460.38 L 497.06,452.47 L 498.23,451.20 L 500.81,448.16 L 502.14,446.57 L 504.90,443.10 L 507.68,439.57 L 513.04,432.22 L 514.30,430.44 L 516.57,427.11 L 517.65,425.50 L 519.42,422.70 L 519.82,422.05 L 520.50,420.87 L 520.82,420.31 L 521.31,419.36 L 521.53,418.91 L 521.82,418.19 L 522.00,417.43 L 522.00,417.03 L 522.29,416.42 L 523.00,416.00 L 523.27,416.00 L 523.71,415.54 L 524.00,414.43 L 524.00,414.00 L 524.46,412.86 L 525.55,411.31 L 525.98,410.88 L 526.82,409.34 L 527.69,406.80 L 527.85,405.99 L 528.65,404.37 L 530.14,402.68 L 530.47,402.48 L 530.98,401.92 L 531.22,401.62 L 531.56,400.85 L 531.71,400.43 L 531.90,399.39 L 532.01,397.51 L 532.01,396.96 L 532.20,395.56 L 532.32,394.82 L 532.70,393.21 L 534.34,388.50 L 534.70,387.73 L 535.41,385.94 L 535.76,385.01 L 536.44,382.92 L 537.12,380.76 L 538.40,375.69 L 539.02,373.06 L 540.15,367.28 L 540.69,364.32 L 541.63,358.12 L 542.08,354.99 L 542.79,348.66 L 543.11,345.51 L 543.55,339.35 L 543.73,336.33 L 543.85,330.65 L 543.63,323.00 L 543.49,321.08 L 543.07,316.84 L 542.84,314.68 L 542.26,310.13 L 541.66,305.56 L 540.18,296.56 L 539.80,294.41 L 539.04,290.47 L 538.66,288.58 L 537.91,285.34 L 537.73,284.59 L 537.38,283.26 L 537.21,282.63 L 536.88,281.56 L 536.71,281.06 L 536.41,280.29 L 535.99,279.50 L 535.89,279.36 L 535.61,278.80 L 535.46,278.47 L 535.10,277.62 L 534.00,274.50 L 533.69,273.53 L 532.90,271.24 L 532.47,270.05 L 531.51,267.46 L 530.51,264.82 L 528.31,259.39 L 527.77,258.08 L 526.73,255.66 L 526.23,254.49 L 525.32,252.49 L 524.88,251.55 L 524.17,250.15 L 523.42,248.92 L 523.03,248.49 L 522.42,247.48 L 522.00,246.24 L 522.00,246.07 L 521.75,245.38 L 521.58,244.98 L 521.05,243.92 L 520.47,242.78 L 518.79,239.91 L 517.91,238.45 L 516.07,235.65 L 515.62,235.00 L 514.80,233.87 L 513.75,232.56 L 513.27,232.03 L 512.51,230.87 L 512.00,229.53 L 512.00,229.23 L 511.41,228.34 L 510.00,227.00 L 509.54,226.67 L 508.86,226.00 L 508.56,225.67 L 508.22,224.96 L 508.10,224.60 L 508.12,223.82 L 508.18,223.42 L 508.57,222.53 L 508.82,222.06 L 509.62,221.02 L 510.07,220.47 L 511.29,219.23 L 511.96,218.59 L 513.61,217.12 L 516.62,214.63 L 517.79,213.68 L 520.02,211.95 L 521.10,211.12 L 522.99,209.75 L 523.87,209.12 L 525.19,208.24 L 525.48,208.06 L 525.91,207.82 L 526.32,207.66 L 526.49,207.65 L 527.32,207.70 L 527.80,207.73 L 529.15,207.85 L 529.87,207.91 L 531.56,208.09 L 534.28,208.41 L 536.44,208.67 L 540.40,208.74 L 541.34,208.72 L 543.04,208.57 L 545.28,208.18 L 545.86,208.03 L 547.51,207.63 L 548.40,207.42 L 550.46,206.93 L 557.00,205.42 L 559.06,204.95 L 563.45,203.68 L 564.49,203.36 L 566.32,202.72 L 568.44,201.86 L 569.08,201.56 L 570.14,201.07 L 570.64,200.85 L 571.46,200.52 L 572.24,200.24 L 573.37,200.21 L 573.90,200.29 L 574.90,201.05 L 575.16,201.29 L 575.76,201.93 L 576.81,203.14 L 577.92,204.44 L 579.68,206.83 L 580.48,208.00 L 581.62,210.19 L 582.12,211.27 L 582.64,213.30 L 582.83,214.31 L 582.72,216.25 L 582.59,217.22 L 581.85,219.13 L 581.40,220.08 L 580.02,222.00 L 579.25,222.97 L 577.22,224.97 L 573.43,228.12 L 571.34,229.70 L 567.65,232.69 L 566.78,233.41 L 565.19,234.76 L 564.43,235.43 L 563.08,236.65 L 562.44,237.24 L 561.36,238.30 L 560.86,238.81 L 560.08,239.68 L 559.73,240.09 L 559.28,240.74 L 559.00,241.44 L 559.00,241.60 L 559.20,242.31 L 559.32,242.71 L 559.73,243.80 L 561.50,247.81 L 562.19,249.23 L 563.27,251.85 L 563.49,252.44 L 563.80,253.38 L 564.00,254.30 L 564.00,254.65 L 564.26,255.50 L 564.87,256.55 L 564.99,256.68 L 565.35,257.39 L 565.55,257.81 L 566.01,258.98 L 567.53,263.50 L 568.02,265.15 L 569.04,268.02 L 569.28,268.65 L 569.69,269.61 L 570.16,270.45 L 570.27,270.58 L 570.48,271.07 L 570.59,271.35 L 570.75,272.07 L 571.00,274.64 L 571.00,275.53 L 571.29,277.11 L 571.38,277.46 L 571.61,278.00 L 572.00,278.50 L 572.14,278.58 L 572.39,279.09 L 572.51,279.38 L 572.71,280.22 L 573.00,283.50 L 573.00,284.71 L 573.26,286.75 L 573.34,287.20 L 573.54,287.87 L 573.88,288.43 L 574.00,288.50 L 574.26,289.09 L 574.40,289.45 L 574.66,290.50 L 574.79,291.07 L 575.03,292.45 L 575.32,294.73 L 575.54,297.06 L 576.10,300.96 L 576.40,302.79 L 577.10,305.72 L 577.47,307.07 L 578.32,309.06 L 579.78,311.02 L 580.11,311.29 L 581.41,311.80 L 582.17,312.05 L 584.33,312.53 L 585.52,312.77 L 588.54,313.23 L 594.03,313.88 L 595.68,314.05 L 598.49,314.38 L 599.82,314.55 L 602.07,314.91 L 603.13,315.09 L 604.90,315.50 L 605.73,315.72 L 607.10,316.22 L 607.74,316.48 L 608.78,317.10 L 609.27,317.43 L 610.07,318.20 L 611.95,321.25 L 612.26,321.95 L 612.63,323.32 L 612.69,323.71 L 612.76,324.68 L 612.78,325.21 L 612.74,326.58 L 612.71,327.33 L 612.57,329.25 L 612.48,330.30 L 612.22,332.93 L 612.08,334.35 L 611.70,337.85 L 611.59,338.79 L 611.36,340.85 L 610.98,344.25 L 610.85,345.45 L 610.54,348.34 L 610.39,349.83 L 610.07,353.00 L 609.91,354.59 L 609.62,357.66 L 609.25,361.75 L 609.15,362.95 L 608.91,365.23 L 608.78,366.32 L 608.53,368.22 L 608.40,369.11 L 608.16,370.42 L 607.85,371.50 L 607.80,371.57 L 607.68,372.00 L 607.62,372.26 L 607.46,373.03 L 607.38,373.46 L 607.20,374.54 L 607.11,375.12 L 606.90,376.47 L 606.69,377.87 L 606.23,381.29 L 605.54,387.00 L 605.31,389.04 L 604.78,392.87 L 604.51,394.72 L 603.95,397.94 L 603.81,398.69 L 603.54,400.02 L 603.40,400.65 L 603.14,401.71 L 603.02,402.21 L 602.78,402.96 L 602.45,403.70 L 601.90,404.55 L 600.23,406.00 L 599.33,406.68 L 597.17,407.70 L 596.06,408.14 L 593.71,408.61 L 590.26,408.57 L 589.74,408.48 L 588.05,408.24 L 587.12,408.12 L 584.81,407.85 L 577.00,407.03 L 567.50,406.15 L 565.25,408.83 L 564.64,409.56 L 563.67,411.04 L 563.46,411.38 L 563.18,411.97 L 563.00,412.61 L 563.00,412.76 L 562.77,413.51 L 562.63,413.94 L 562.15,415.12 L 561.89,415.76 L 561.23,417.23 L 560.10,419.61 L 559.70,420.42 L 558.77,422.33 L 558.29,423.31 L 557.29,425.39 L 556.79,426.42 L 555.84,428.40 L 554.60,431.00 L 553.51,433.32 L 551.05,437.98 L 549.76,440.33 L 546.84,445.17 L 545.31,447.64 L 541.81,452.86 L 535.78,461.33 L 535.03,462.34 L 533.80,464.07 L 533.23,464.89 L 532.34,466.27 L 531.94,466.93 L 531.39,468.04 L 531.15,468.57 L 530.91,469.48 L 530.83,469.91 L 530.90,470.68 L 530.97,471.06 L 531.33,471.76 L 531.54,472.11 L 532.18,472.81 L 533.43,473.95 L 533.86,474.30 L 534.37,475.10 L 534.45,476.09 L 534.37,476.21 L 534.50,476.68 L 534.60,476.95 L 535.04,477.66 L 537.21,480.24 L 538.22,481.26 L 539.96,483.06 L 540.79,483.92 L 542.17,485.47 L 542.82,486.22 L 543.88,487.58 L 544.37,488.24 L 545.15,489.48 L 545.86,490.70 L 546.60,493.06 L 546.98,497.00 L 546.98,498.61 L 546.60,501.22 L 546.32,502.46 L 545.15,504.65 L 544.79,505.19 L 543.89,506.28 L 543.40,506.82 L 542.20,507.95 L 541.56,508.52 L 540.02,509.75 L 537.31,511.77 L 536.60,512.29 L 534.69,513.69 L 533.68,514.44 L 531.40,516.17 L 524.45,521.50 L 522.34,523.15 L 518.06,526.47 L 517.06,527.24 L 515.36,528.56 L 513.47,530.00 L 513.02,530.34 L 511.73,531.35 L 511.04,531.89 L 509.42,533.17 L 504.33,537.29 L 502.58,538.72 L 499.37,541.26 L 497.82,542.48 L 494.98,544.60 L 493.60,545.60 L 491.10,547.30 L 489.89,548.11 L 487.71,549.41 L 486.65,550.02 L 484.75,550.94 L 483.83,551.36 L 482.19,551.92 L 481.40,552.16 L 479.99,552.37 L 478.10,552.31 L 477.07,552.13 L 475.21,551.43 L 474.28,551.00 L 472.43,549.63 L 471.49,548.85 L 469.39,546.61 L 468.84,545.98 L 467.65,544.53 L 465.70,542.03 L 464.87,540.94 L 463.32,538.96 L 462.57,538.01 L 461.17,536.31 L 460.49,535.50 L 459.24,534.07 L 458.64,533.40 L 457.53,532.24 L 457.00,531.70 L 456.04,530.82 L 455.58,530.42 L 454.77,529.81 L 454.38,529.54 L 453.71,529.20 L 452.87,529.00 L 452.67,529.00 L 452.08,529.10 L 451.76,529.17 L 450.95,529.41 L 450.08,529.67 L 447.83,530.51 L 446.65,530.97 L 443.96,532.14 L 439.76,534.13 L 439.29,534.37 L 437.96,534.74 L 436.07,535.00 L 435.54,535.00 L 434.51,535.29 L 433.50,536.00 L 433.33,536.27 L 432.34,536.71 L 430.43,537.00 L 429.75,537.00 L 428.18,537.28 L 426.24,537.94 L 425.73,538.22 L 423.99,538.88 L 423.03,539.22 L 420.56,539.97 L 419.27,540.36 L 416.32,541.14 L 414.82,541.54 L 411.65,542.30 L 410.06,542.67 L 406.91,543.35 L 405.37,543.67 L 402.49,544.21 L 401.11,544.45 L 398.77,544.79 L 396.10,545.00 L 395.01,545.00 L 393.11,545.29 L 392.69,545.38 L 392.05,545.61 L 391.50,546.00 L 391.33,546.27 L 390.25,546.71 L 388.11,547.00 L 387.58,547.00 L 386.69,547.10 L 386.27,547.17 L 385.55,547.52 L 385.21,547.73 L 384.63,548.45 L 384.35,548.86 L 383.86,550.08 L 383.62,550.77 L 383.17,552.61 L 382.94,553.63 L 382.49,556.23 L 382.26,557.64 L 381.76,561.13 L 381.63,562.06 L 381.35,564.12 L 380.91,567.50 L 380.76,568.67 L 380.45,570.74 L 380.29,571.72 L 379.95,573.44 L 379.78,574.26 L 379.40,575.67 L 379.21,576.34 L 378.77,577.48 L 378.32,578.56 L 377.19,580.08 L 375.00,581.71 L 374.71,581.85 L 373.71,582.11 L 373.16,582.23 L 371.72,582.43 L 370.20,582.62 L 366.47,582.83 L 364.59,582.90 L 360.99,582.83 L 360.15,582.79 L 358.70,582.66 L 358.02,582.58 M 183.00,506.22 L 182.31,505.46 L 180.74,503.51 L 178.82,500.87 L 178.36,500.16 L 177.24,498.63 L 175.81,496.89 L 175.72,496.79 L 175.36,496.38 L 175.16,496.13 L 174.59,495.44 L 174.29,495.07 L 173.54,494.14 L 173.14,493.66 L 172.24,492.53 L 171.31,491.36 L 169.11,488.57 L 165.52,484.00 L 164.29,482.42 L 161.97,479.46 L 160.86,478.03 L 158.95,475.58 L 158.51,475.02 L 157.74,474.03 L 157.37,473.56 L 156.78,472.80 L 156.50,472.44 L 156.10,471.94 L 155.76,471.50 L 155.66,471.36 L 155.22,470.84 L 154.98,470.54 L 154.34,469.77 L 152.01,467.00 L 151.19,466.04 L 149.90,464.34 L 149.63,463.96 L 149.26,463.38 L 149.02,462.86 L 149.01,462.77 L 148.78,462.36 L 148.63,462.13 L 148.16,461.49 L 146.11,459.12 L 145.42,458.38 L 144.32,456.78 L 143.83,455.96 L 143.13,454.27 L 142.83,453.41 L 142.53,451.67 L 142.43,450.80 L 142.52,449.06 L 142.61,448.19 L 143.08,446.50 L 143.36,445.67 L 144.20,444.08 L 144.67,443.30 L 145.89,441.87 L 148.14,439.93 L 149.06,439.28 L 150.92,437.86 L 151.36,437.52 L 152.09,436.92 L 152.90,436.20 L 153.10,436.01 L 153.87,435.36 L 154.30,435.00 L 155.46,434.08 L 159.62,430.91 L 160.57,430.21 L 162.12,429.02 L 162.84,428.46 L 163.96,427.46 L 164.47,426.97 L 165.19,426.04 L 165.50,425.58 L 165.84,424.61 L 165.96,424.12 L 165.96,423.01 L 165.92,422.43 L 165.59,421.06 L 165.39,420.34 L 164.78,418.62 L 163.56,415.50 L 162.52,412.92 L 160.67,408.16 L 159.78,405.84 L 158.20,401.51 L 157.45,399.39 L 156.11,395.38 L 155.47,393.40 L 154.34,389.60 L 153.26,385.82 L 151.58,378.41 L 151.19,376.53 L 150.49,372.66 L 149.53,366.58 L 149.29,364.88 L 148.79,362.06 L 148.53,360.74 L 148.01,358.64 L 147.74,357.68 L 147.18,356.27 L 146.30,354.88 L 145.97,354.56 L 144.87,354.00 L 144.24,353.73 L 142.42,353.25 L 141.40,353.02 L 138.70,352.59 L 137.97,352.49 L 136.30,352.28 L 133.50,351.96 L 131.98,351.81 L 129.32,351.48 L 128.04,351.32 L 125.83,350.97 L 124.77,350.79 L 122.94,350.40 L 122.07,350.19 L 120.56,349.73 L 119.12,349.24 L 116.92,347.97 L 114.13,345.44 L 113.78,345.03 L 113.20,344.16 L 112.94,343.70 L 112.56,342.54 L 112.40,341.89 L 112.24,340.17 L 112.19,339.21 L 112.25,336.65 L 112.28,335.94 L 112.39,334.33 L 112.45,333.49 L 112.61,331.57 L 112.70,330.58 L 112.93,328.33 L 113.05,327.16 L 113.34,324.54 L 113.50,323.18 L 113.85,320.17 L 114.04,318.61 L 114.46,315.15 L 114.68,313.37 L 115.17,309.45 L 115.98,303.00 L 116.28,300.66 L 116.89,295.38 L 117.04,294.11 L 117.29,291.81 L 117.57,289.00 L 117.71,287.49 L 118.19,284.23 L 118.32,283.46 L 118.58,282.10 L 118.95,280.50 L 119.07,280.09 L 119.34,278.87 L 119.47,278.20 L 119.75,276.63 L 120.44,271.54 L 120.56,270.41 L 120.79,268.50 L 120.90,267.60 L 121.13,266.09 L 121.25,265.37 L 121.52,264.20 L 121.66,263.64 L 122.00,262.73 L 122.36,261.87 L 123.39,260.66 L 125.66,259.04 L 126.71,258.42 L 128.99,257.63 L 130.20,257.30 L 133.14,257.10 L 133.94,257.08 L 135.73,257.16 L 136.67,257.22 L 138.78,257.44 L 139.89,257.57 L 142.37,257.94 L 146.59,258.64 L 147.86,258.87 L 150.30,259.23 L 151.48,259.40 L 153.58,259.62 L 154.56,259.71 L 156.08,259.77 L 157.45,259.66 L 157.67,259.57 L 158.20,259.12 L 158.47,258.85 L 159.04,258.11 L 160.58,255.26 L 161.66,252.53 L 164.19,246.51 L 165.47,243.51 L 167.99,237.85 L 168.59,236.52 L 169.71,234.12 L 170.24,232.98 L 171.17,231.09 L 171.60,230.21 L 172.27,228.97 L 172.91,228.00 L 172.99,227.93 L 173.30,227.49 L 173.48,227.23 L 173.94,226.47 L 175.58,223.50 L 176.02,222.65 L 176.80,221.16 L 177.18,220.45 L 177.85,219.21 L 178.50,218.03 L 179.56,216.28 L 180.06,215.48 L 180.94,214.31 L 182.25,212.89 L 182.73,212.45 L 183.49,211.26 L 184.00,209.63 L 184.00,209.18 L 184.22,208.48 L 184.75,207.99 L 184.85,207.99 L 185.24,207.70 L 185.46,207.50 L 186.01,206.89 L 188.00,204.24 L 188.69,203.21 L 190.28,201.03 L 190.66,200.52 L 191.37,199.61 L 192.25,198.56 L 192.77,197.99 L 193.43,197.09 L 193.70,196.66 L 193.90,195.85 L 193.94,195.44 L 193.69,194.51 L 192.84,192.68 L 192.71,192.45 L 192.27,191.74 L 192.02,191.35 L 191.39,190.42 L 190.72,189.44 L 189.08,187.17 L 188.25,186.04 L 186.69,184.01 L 186.33,183.55 L 185.71,182.79 L 185.00,182.00 L 184.93,181.93 L 184.55,181.48 L 184.32,181.20 L 183.69,180.42 L 181.25,177.31 L 180.56,176.42 L 179.59,174.96 L 179.15,174.25 L 178.60,172.90 L 178.36,172.21 L 178.12,170.66 L 178.00,167.75 L 178.00,166.93 L 178.02,165.57 L 178.06,164.92 L 178.29,163.76 L 178.44,163.18 L 179.06,162.00 L 179.44,161.40 L 180.64,160.02 L 181.32,159.29 L 183.29,157.50 L 183.83,157.02 L 185.10,155.95 L 185.77,155.40 L 187.29,154.16 L 188.09,153.51 L 189.89,152.08 L 190.83,151.34 L 192.94,149.68 L 194.03,148.83 L 196.46,146.93 L 200.50,143.78 L 200.64,143.67 L 201.20,143.20 L 201.53,142.93 L 202.38,142.21 L 205.50,139.52 L 206.60,138.57 L 208.69,137.06 L 209.17,136.74 L 209.95,136.31 L 210.75,136.02 L 211.09,136.02 L 211.63,135.76 L 212.00,135.17 L 212.00,135.05 L 212.21,134.73 L 212.35,134.56 L 212.80,134.17 L 214.71,132.92 L 215.45,132.53 L 217.37,131.16 L 219.96,128.94 L 220.31,128.59 L 221.22,127.76 L 221.70,127.33 L 222.78,126.43 L 226.00,123.99 L 226.96,123.33 L 228.91,121.82 L 229.37,121.46 L 230.14,120.79 L 231.00,119.98 L 231.94,118.96 L 234.15,117.17 L 235.28,116.33 L 237.72,114.96 L 238.94,114.34 L 241.39,113.52 L 244.83,113.00 L 246.13,113.00 L 248.47,113.46 L 249.62,113.77 L 251.75,114.92 L 252.81,115.58 L 254.85,117.50 L 257.97,121.32 L 258.38,121.89 L 259.51,123.37 L 260.12,124.15 L 261.52,125.88 L 265.86,130.97 L 270.78,136.45 L 276.14,133.83 L 278.50,132.67 L 282.70,130.79 L 284.76,129.90 L 288.87,128.37 L 290.97,127.63 L 295.64,126.22 L 296.88,125.87 L 299.56,125.14 L 304.00,124.00 L 306.34,123.41 L 311.18,122.11 L 312.31,121.80 L 314.28,121.24 L 316.50,120.57 L 317.05,120.39 L 318.78,119.96 L 319.73,119.74 L 322.05,119.26 L 329.77,117.94 L 331.20,117.74 L 333.72,117.28 L 334.92,117.04 L 336.93,116.54 L 337.85,116.29 L 339.23,115.79 L 340.46,115.04 L 340.67,114.82 L 341.08,113.82 L 341.28,113.25 L 341.66,111.67 L 341.84,110.82 L 342.15,108.82 L 342.51,105.49 L 342.69,103.24 L 343.34,98.81 L 343.71,96.65 L 344.64,92.72 L 344.88,91.79 L 345.40,90.10 L 345.66,89.29 L 346.21,87.89 L 346.49,87.22 L 347.05,86.16 L 347.89,85.00 L 348.19,84.70 L 349.48,84.25 L 350.25,84.06 L 352.49,83.80 L 353.73,83.70 L 356.94,83.65 L 358.66,83.65 L 362.84,83.79 L 365.05,83.89 L 370.21,84.23 L 372.91,84.43 L 379.07,84.97 L 382.27,85.27 L 389.43,86.01 L 401.31,87.35 L 403.87,87.65 L 408.50,88.21 L 410.74,88.49 L 414.75,89.00 L 416.67,89.26 L 420.06,89.73 L 421.68,89.96 L 424.47,90.38 L 425.80,90.59 L 428.00,90.98 L 429.04,91.17 L 430.68,91.52 L 431.42,91.68 L 432.51,92.00 L 433.53,92.42 L 434.10,92.80 L 435.07,93.80 L 435.52,94.35 L 436.23,95.71 L 436.55,96.44 L 437.02,98.21 L 437.21,99.15 L 437.43,101.38 L 437.50,102.55 L 437.47,105.28 L 437.43,106.71 L 437.15,109.99 L 436.98,111.70 L 436.47,115.57 L 435.44,122.09 L 435.30,122.88 L 435.21,124.07 L 435.21,124.62 L 435.46,125.51 L 435.64,125.95 L 436.33,126.81 L 437.99,128.34 L 438.86,129.07 L 440.49,130.22 L 440.86,130.46 L 441.45,130.79 L 442.05,131.00 L 442.31,131.00 L 443.23,131.26 L 443.75,131.42 L 445.07,131.96 L 446.47,132.54 L 449.84,134.21 L 451.52,135.07 L 454.56,136.83 L 455.24,137.25 L 456.33,137.99 L 457.41,138.89 L 457.74,139.25 L 458.20,139.93 L 458.40,140.27 L 458.57,141.00 L 458.62,141.38 L 458.45,142.25 L 458.31,142.71 L 457.73,143.83 L 457.38,144.43 L 456.33,145.89 L 455.75,146.67 L 454.17,148.57 L 453.32,149.59 L 451.17,152.03 L 447.22,156.42 L 437.79,166.83 L 431.14,164.34 L 429.32,163.65 L 425.57,162.20 L 424.70,161.85 L 423.19,161.25 L 421.50,160.55 L 421.09,160.37 L 420.00,159.96 L 419.43,159.75 L 418.13,159.31 L 414.25,158.13 L 413.08,157.82 L 410.15,157.04 L 409.42,156.85 L 408.04,156.48 L 406.25,156.01 L 403.18,155.20 L 396.86,153.85 L 393.68,153.22 L 387.18,152.24 L 383.92,151.79 L 377.30,151.17 L 373.98,150.91 L 367.31,150.66 L 363.97,150.58 L 357.29,150.70 L 353.96,150.80 L 347.34,151.29 L 344.05,151.58 L 337.55,152.44 L 328.00,154.15 L 325.39,154.71 L 320.33,155.73 L 319.18,155.96 L 317.26,156.33 L 315.24,156.69 L 314.34,156.84 L 312.78,157.33 L 312.43,157.46 L 311.90,157.72 L 311.43,158.11 L 311.28,158.36 L 310.22,158.74 L 308.09,159.00 L 307.71,159.00 L 306.37,159.32 L 305.62,159.52 L 303.72,160.18 L 302.73,160.54 L 300.52,161.45 L 297.12,163.00 L 296.00,163.55 L 293.88,164.55 L 292.86,165.03 L 291.11,165.82 L 290.30,166.19 L 289.11,166.68 L 288.16,167.00 L 288.02,167.00 L 287.26,167.27 L 286.81,167.45 L 285.56,168.01 L 284.88,168.33 L 283.27,169.12 L 282.43,169.53 L 280.60,170.47 L 278.74,171.44 L 274.95,173.52 L 274.04,174.03 L 272.38,174.99 L 270.27,176.28 L 269.11,177.03 L 267.14,178.20 L 266.71,178.45 L 266.08,178.79 L 265.55,179.00 L 265.50,179.00 L 265.18,179.17 L 264.99,179.27 L 264.43,179.64 L 263.82,180.04 L 262.02,181.33 L 261.04,182.04 L 258.72,183.76 L 257.52,184.66 L 254.96,186.62 L 253.68,187.60 L 251.16,189.57 L 249.92,190.54 L 247.71,192.31 L 246.68,193.15 L 245.06,194.51 L 244.70,194.82 L 244.15,195.31 L 243.60,195.86 L 243.07,196.45 L 241.89,197.37 L 240.47,198.00 L 240.26,198.00 L 239.58,198.33 L 239.21,198.55 L 238.29,199.22 L 237.32,199.97 L 235.11,202.04 L 234.03,203.10 L 232.25,205.16 L 231.87,205.64 L 231.34,206.43 L 231.00,207.30 L 231.00,207.48 L 230.72,208.08 L 230.53,208.41 L 229.94,209.24 L 227.39,212.05 L 226.76,212.66 L 225.15,214.42 L 224.30,215.38 L 222.39,217.69 L 220.43,220.10 L 216.30,225.56 L 215.31,226.91 L 213.49,229.47 L 212.62,230.71 L 211.16,232.91 L 210.50,233.93 L 209.58,235.52 L 209.40,235.87 L 209.15,236.42 L 209.00,236.98 L 209.00,237.19 L 208.55,237.90 L 207.48,239.02 L 207.27,239.19 L 206.61,240.07 L 206.25,240.58 L 205.38,242.00 L 204.93,242.76 L 203.94,244.53 L 202.47,247.39 L 201.99,248.37 L 201.05,250.27 L 200.58,251.19 L 199.75,252.85 L 199.35,253.63 L 198.72,254.86 L 198.11,256.00 L 197.87,256.41 L 197.16,257.87 L 196.12,260.25 L 195.81,261.01 L 195.04,262.85 L 194.02,265.25 L 193.73,265.91 L 193.01,267.83 L 192.63,268.87 L 191.78,271.39 L 191.34,272.71 L 190.43,275.59 L 189.97,277.06 L 189.05,280.09 L 188.60,281.61 L 187.76,284.55 L 187.35,285.99 L 186.64,288.63 L 186.31,289.89 L 185.81,291.98 L 185.37,294.27 L 185.20,295.58 L 184.67,297.80 L 184.53,298.28 L 184.26,299.00 L 183.87,299.58 L 183.75,299.66 L 183.53,300.40 L 183.43,300.86 L 183.26,302.23 L 183.18,302.98 L 183.07,304.81 L 183.00,307.86 L 183.00,308.92 L 182.92,310.95 L 182.86,311.93 L 182.69,313.64 L 182.60,314.43 L 182.36,315.63 L 181.95,316.65 L 181.84,316.76 L 181.66,317.45 L 181.58,317.86 L 181.45,319.09 L 181.39,319.77 L 181.32,321.46 L 181.29,322.35 L 181.26,324.43 L 181.25,325.51 L 181.26,327.89 L 181.27,329.11 L 181.33,331.71 L 181.39,334.35 L 181.62,339.96 L 181.74,342.77 L 182.08,348.23 L 182.26,350.88 L 182.67,355.54 L 182.78,356.63 L 183.01,358.54 L 183.12,359.44 L 183.35,360.94 L 183.47,361.62 L 183.71,362.61 L 184.08,363.45 L 184.33,363.71 L 184.73,364.72 L 184.99,366.45 L 184.99,366.81 L 185.12,367.93 L 185.21,368.56 L 185.49,370.11 L 185.80,371.75 L 186.71,375.69 L 187.19,377.67 L 188.24,381.44 L 188.49,382.32 L 188.99,383.85 L 189.66,385.65 L 190.02,386.52 L 190.60,388.29 L 190.73,388.70 L 190.89,389.41 L 191.00,390.20 L 191.00,390.59 L 191.24,391.47 L 191.83,392.55 L 191.94,392.68 L 192.25,393.27 L 192.41,393.62 L 192.79,394.54 L 193.94,398.00 L 194.33,399.36 L 195.10,401.73 L 195.48,402.86 L 196.26,404.78 L 196.64,405.69 L 197.42,407.20 L 198.61,409.00 L 198.78,409.21 L 199.40,410.21 L 199.76,410.80 L 200.67,412.41 L 201.16,413.27 L 202.25,415.28 L 203.96,418.50 L 204.53,419.60 L 206.03,422.24 L 206.83,423.60 L 208.63,426.50 L 209.54,427.95 L 211.40,430.76 L 214.03,434.50 L 214.85,435.60 L 216.39,437.72 L 217.13,438.76 L 218.42,440.59 L 219.02,441.45 L 219.92,442.79 L 220.65,444.00 L 220.74,444.21 L 221.30,444.97 L 221.62,445.40 L 222.55,446.50 L 226.17,450.39 L 226.83,451.07 L 228.04,452.37 L 228.62,453.00 L 229.58,454.14 L 230.02,454.67 L 230.62,455.50 L 231.00,456.26 L 231.00,456.40 L 230.56,457.13 L 230.28,457.55 L 229.38,458.75 L 228.88,459.40 L 227.62,460.91 L 225.47,463.37 L 225.14,463.74 L 224.29,464.69 L 223.84,465.20 L 222.78,466.39 L 221.67,467.63 L 218.94,470.72 L 217.50,472.34 L 214.28,476.00 L 212.63,477.88 L 209.12,481.87 L 205.59,485.89 L 198.62,493.87 L 196.95,495.77 L 193.91,499.26 L 190.00,503.77 L 185.50,508.97 L 183.00,506.22 M 355.80,500.47 L 355.75,500.42 L 355.44,500.31 L 355.25,500.26 L 354.67,500.13 L 354.04,500.01 L 352.13,499.73 L 351.09,499.59 L 348.55,499.32 L 344.30,498.94 L 342.35,498.79 L 338.78,498.47 L 337.06,498.30 L 333.93,497.95 L 332.43,497.77 L 329.77,497.38 L 328.50,497.18 L 326.31,496.77 L 325.28,496.56 L 323.58,496.12 L 322.80,495.90 L 321.61,495.44 L 321.08,495.21 L 320.41,494.74 L 320.00,494.01 L 320.00,493.90 L 320.20,493.58 L 320.32,493.40 L 320.73,492.98 L 322.50,491.59 L 323.08,491.21 L 324.23,490.75 L 324.55,490.66 L 325.32,490.55 L 325.73,490.52 L 326.77,490.52 L 327.33,490.54 L 328.73,490.65 L 329.48,490.72 L 331.36,490.95 L 332.36,491.08 L 334.81,491.42 L 339.25,492.07 L 342.29,492.53 L 348.49,493.16 L 351.60,493.43 L 357.88,493.71 L 361.03,493.81 L 367.34,493.73 L 370.49,493.65 L 376.76,493.23 L 379.88,492.98 L 386.03,492.22 L 389.09,491.80 L 395.06,490.71 L 398.02,490.12 L 403.75,488.70 L 412.00,486.20 L 413.24,485.77 L 415.47,484.92 L 415.97,484.72 L 416.76,484.38 L 417.50,484.00 L 417.64,483.91 L 418.28,483.60 L 418.66,483.44 L 419.67,483.01 L 423.50,481.56 L 425.32,480.91 L 429.05,479.38 L 430.91,478.60 L 434.44,476.95 L 436.15,476.12 L 439.14,474.50 L 439.83,474.10 L 441.05,473.35 L 442.59,472.30 L 443.45,471.67 L 444.98,470.68 L 445.33,470.47 L 445.87,470.18 L 446.38,470.00 L 446.48,470.00 L 446.88,469.83 L 447.10,469.73 L 447.72,469.38 L 448.38,469.00 L 450.07,467.87 L 450.94,467.28 L 452.68,465.99 L 454.79,464.25 L 455.17,463.91 L 456.01,463.37 L 457.03,463.00 L 457.15,463.00 L 457.55,462.82 L 457.77,462.71 L 458.32,462.33 L 460.20,460.73 L 460.52,460.42 L 461.37,459.65 L 461.82,459.26 L 462.85,458.40 L 466.00,456.00 L 466.53,455.63 L 467.89,454.53 L 468.61,453.93 L 470.27,452.45 L 471.12,451.67 L 472.98,449.90 L 473.93,449.00 L 475.89,447.05 L 477.87,445.07 L 481.72,440.97 L 482.65,439.96 L 484.35,438.03 L 486.59,435.37 L 487.67,434.04 L 490.03,431.21 L 490.60,430.54 L 491.61,429.37 L 492.81,428.01 L 493.13,427.66 L 493.92,426.68 L 494.33,426.15 L 495.23,424.92 L 497.78,421.00 L 498.51,419.76 L 499.88,417.72 L 500.19,417.29 L 500.70,416.65 L 501.21,416.17 L 501.43,416.07 L 501.77,415.39 L 502.00,414.00 L 502.00,413.50 L 502.23,412.61 L 502.77,411.83 L 502.91,411.78 L 503.42,411.11 L 503.71,410.70 L 504.47,409.46 L 504.87,408.78 L 505.80,407.10 L 506.28,406.23 L 507.29,404.28 L 508.31,402.29 L 510.27,398.17 L 510.73,397.18 L 511.53,395.35 L 512.46,393.00 L 513.47,390.19 L 515.26,384.92 L 516.13,382.34 L 517.65,377.45 L 518.38,375.05 L 519.64,370.47 L 520.25,368.21 L 521.27,363.86 L 522.24,359.55 L 523.53,351.28 L 524.65,338.77 L 524.73,337.08 L 524.79,333.46 L 524.80,331.63 L 524.75,327.85 L 524.67,324.06 L 524.21,316.81 L 524.08,315.09 L 523.76,311.96 L 523.59,310.47 L 523.21,307.95 L 523.02,306.78 L 522.59,305.05 L 521.93,303.55 L 521.80,303.42 L 521.57,302.92 L 521.46,302.65 L 521.27,301.92 L 521.00,299.35 L 521.00,298.45 L 520.73,296.37 L 520.09,293.80 L 519.97,293.48 L 519.60,292.43 L 519.41,291.85 L 518.95,290.41 L 517.48,285.50 L 517.13,284.24 L 516.47,282.00 L 516.16,280.91 L 515.57,278.97 L 514.99,277.09 L 513.95,274.02 L 513.43,272.57 L 512.39,270.02 L 510.66,266.32 L 510.33,265.65 L 509.47,263.93 L 509.01,263.03 L 508.01,261.01 L 505.02,255.00 L 504.58,254.11 L 503.70,252.45 L 503.27,251.66 L 502.48,250.31 L 502.11,249.69 L 501.50,248.81 L 500.90,248.17 L 500.65,248.07 L 500.26,247.50 L 500.00,246.37 L 500.00,246.17 L 499.80,245.59 L 499.67,245.28 L 499.26,244.55 L 497.47,242.21 L 496.45,241.12 L 495.12,238.83 L 494.57,237.70 L 494.19,235.56 L 494.16,235.05 L 494.27,234.11 L 494.36,233.66 L 494.72,232.87 L 494.94,232.50 L 495.55,231.90 L 496.75,231.25 L 496.91,231.20 L 497.50,231.52 L 497.83,231.75 L 498.70,232.57 L 499.16,233.03 L 500.22,234.24 L 500.78,234.89 L 501.97,236.40 L 503.17,237.96 L 505.64,241.54 L 508.79,246.81 L 509.56,248.29 L 511.00,251.08 L 511.70,252.45 L 512.99,255.00 L 513.61,256.24 L 514.73,258.51 L 515.27,259.61 L 516.21,261.59 L 516.65,262.53 L 517.40,264.16 L 517.74,264.94 L 518.27,266.20 L 518.51,266.79 L 518.81,267.66 L 519.00,268.47 L 519.00,268.86 L 519.29,269.65 L 520.00,270.50 L 520.27,270.67 L 520.71,271.51 L 521.00,273.07 L 521.00,273.61 L 521.26,274.96 L 521.88,276.76 L 522.26,277.53 L 523.02,279.47 L 523.38,280.47 L 524.02,282.63 L 524.31,283.70 L 524.73,285.70 L 525.00,288.12 L 525.00,288.80 L 525.29,290.16 L 525.98,291.58 L 526.12,291.72 L 526.44,292.44 L 526.60,292.86 L 526.95,294.03 L 527.90,298.53 L 528.03,299.35 L 528.35,301.40 L 528.53,302.47 L 528.91,304.80 L 529.10,305.98 L 529.49,308.31 L 530.04,311.50 L 530.22,312.54 L 530.50,314.90 L 530.63,316.12 L 530.82,318.78 L 530.98,321.51 L 531.04,327.68 L 531.03,330.85 L 530.76,337.57 L 530.59,340.95 L 530.04,347.79 L 529.74,351.18 L 528.94,357.71 L 528.51,360.89 L 527.51,366.68 L 527.25,368.06 L 526.69,370.62 L 526.41,371.85 L 525.81,374.07 L 525.51,375.14 L 524.88,376.97 L 523.90,379.24 L 523.65,379.71 L 523.27,381.33 L 523.00,383.93 L 523.00,384.74 L 522.71,386.20 L 522.62,386.52 L 522.39,387.03 L 522.00,387.50 L 521.73,387.67 L 521.29,388.48 L 521.00,389.97 L 521.00,390.22 L 520.82,391.07 L 520.70,391.53 L 520.31,392.69 L 518.66,396.66 L 518.33,397.32 L 517.44,399.17 L 516.96,400.15 L 515.86,402.43 L 512.44,409.50 L 510.53,413.45 L 505.92,421.34 L 503.49,425.28 L 497.97,432.99 L 495.12,436.80 L 488.85,444.11 L 478.77,454.42 L 477.34,455.74 L 474.55,458.30 L 473.18,459.54 L 470.70,461.74 L 469.53,462.77 L 467.65,464.35 L 467.23,464.70 L 466.55,465.24 L 465.82,465.78 L 465.46,466.02 L 464.54,466.66 L 464.05,467.00 L 462.98,467.77 L 459.85,470.15 L 459.39,470.52 L 458.15,471.40 L 457.50,471.85 L 456.02,472.83 L 451.50,475.53 L 450.12,476.28 L 447.50,477.86 L 446.91,478.23 L 445.93,478.88 L 444.92,479.63 L 444.49,480.01 L 443.39,480.60 L 441.92,481.02 L 441.73,481.03 L 441.17,481.19 L 440.88,481.29 L 440.18,481.61 L 438.00,483.00 L 437.31,483.54 L 435.86,484.39 L 435.52,484.57 L 434.92,484.81 L 434.24,484.98 L 433.89,484.98 L 432.83,485.26 L 431.24,485.92 L 430.28,486.42 L 428.07,487.44 L 426.90,487.95 L 424.22,489.01 L 422.81,489.55 L 419.57,490.67 L 414.00,492.47 L 412.83,492.84 L 410.52,493.58 L 409.39,493.94 L 407.32,494.62 L 406.34,494.94 L 404.77,495.49 L 403.20,496.06 L 402.89,496.19 L 402.01,496.42 L 401.55,496.54 L 400.48,496.72 L 397.15,497.00 L 396.12,497.00 L 394.22,497.27 L 393.80,497.35 L 393.11,497.56 L 392.45,497.91 L 392.32,498.04 L 391.33,498.31 L 390.74,498.45 L 388.99,498.72 L 388.04,498.86 L 385.76,499.10 L 382.00,499.39 L 380.69,499.47 L 377.68,499.65 L 376.14,499.75 L 372.94,499.97 L 371.35,500.07 L 368.36,500.28 L 364.50,500.57 L 363.40,500.65 L 361.34,500.75 L 360.35,500.79 L 358.64,500.79 L 357.86,500.78 L 356.70,500.70 L 356.21,500.65 M 238.00,446.18 L 238.00,446.07 L 237.57,445.40 L 237.29,445.00 L 236.38,443.87 L 235.88,443.26 L 234.63,441.81 L 232.49,439.45 L 231.74,438.63 L 230.31,437.01 L 229.62,436.21 L 228.44,434.75 L 227.89,434.05 L 227.08,432.92 L 226.43,431.76 L 226.27,431.28 L 225.76,430.52 L 224.93,430.00 L 224.68,430.00 L 224.27,429.69 L 224.00,428.93 L 224.00,428.79 L 223.81,428.27 L 223.69,427.98 L 223.30,427.24 L 221.61,424.68 L 221.28,424.25 L 220.38,422.86 L 219.90,422.09 L 218.79,420.23 L 215.36,414.00 L 214.83,412.97 L 213.80,411.06 L 213.30,410.15 L 212.41,408.61 L 212.00,407.90 L 211.35,406.89 L 210.75,406.17 L 210.54,406.07 L 210.22,405.41 L 210.00,404.05 L 210.00,403.81 L 209.83,403.15 L 209.73,402.80 L 209.38,402.00 L 207.88,399.58 L 207.30,398.84 L 206.15,396.74 L 204.95,393.69 L 204.84,393.25 L 204.50,392.10 L 204.32,391.49 L 203.89,390.12 L 202.50,386.03 L 202.03,384.75 L 201.22,382.19 L 200.83,380.85 L 200.05,377.63 L 199.84,376.75 L 199.42,374.74 L 199.20,373.68 L 198.72,371.26 L 198.47,369.99 L 197.93,367.06 L 197.00,362.00 L 196.76,360.70 L 196.35,357.88 L 196.16,356.45 L 195.84,353.40 L 195.53,350.30 L 195.16,343.56 L 195.02,340.13 L 194.96,332.96 L 194.97,329.35 L 195.22,322.06 L 195.37,318.43 L 195.90,311.32 L 196.20,307.83 L 196.99,301.23 L 197.42,298.02 L 198.48,292.24 L 198.76,290.86 L 199.36,288.30 L 200.33,284.82 L 200.52,284.23 L 201.00,282.69 L 201.25,281.87 L 201.80,280.06 L 203.42,274.68 L 203.52,274.35 L 203.81,273.49 L 203.98,273.04 L 204.39,271.96 L 204.83,270.84 L 205.98,268.11 L 206.59,266.69 L 207.99,263.57 L 208.70,261.99 L 210.19,258.77 L 210.94,257.18 L 212.39,254.18 L 213.10,252.73 L 214.38,250.22 L 214.98,249.06 L 215.94,247.35 L 216.15,246.98 L 216.50,246.45 L 216.87,246.00 L 216.96,245.93 L 217.23,245.59 L 217.38,245.39 L 217.73,244.84 L 218.92,242.75 L 219.31,241.99 L 220.17,240.81 L 220.37,240.56 L 220.73,240.22 L 221.17,240.00 L 221.40,240.00 L 221.76,239.61 L 222.00,238.69 L 222.00,238.33 L 222.56,237.17 L 223.89,235.34 L 224.41,234.79 L 225.72,232.96 L 227.45,230.09 L 227.61,229.78 L 228.17,228.95 L 228.49,228.50 L 229.33,227.43 L 229.78,226.87 L 230.87,225.60 L 231.44,224.94 L 232.74,223.50 L 234.08,222.02 L 237.26,218.70 L 238.90,217.00 L 242.47,213.44 L 244.28,211.66 L 247.97,208.14 L 249.81,206.41 L 253.34,203.20 L 255.06,201.65 L 258.16,199.03 L 258.89,198.42 L 260.23,197.36 L 262.01,196.04 L 262.97,195.37 L 264.62,194.15 L 264.98,193.88 L 265.53,193.45 L 266.00,193.04 L 266.11,192.91 L 266.80,192.42 L 267.21,192.13 L 268.41,191.37 L 269.06,190.96 L 270.65,190.00 L 271.48,189.50 L 273.34,188.41 L 275.24,187.30 L 279.35,185.00 L 280.36,184.45 L 282.31,183.40 L 285.00,181.99 L 286.44,181.25 L 288.90,180.01 L 290.07,179.42 L 292.05,178.43 L 293.00,177.96 L 294.61,177.19 L 295.38,176.82 L 296.73,176.21 L 298.04,175.63 L 300.30,174.78 L 304.00,173.57 L 305.51,173.11 L 308.34,172.14 L 308.98,171.92 L 310.01,171.52 L 311.04,171.07 L 311.32,170.92 L 312.39,170.53 L 313.00,170.32 L 314.63,169.82 L 315.51,169.56 L 317.58,169.00 L 318.66,168.71 L 321.04,168.11 L 323.47,167.50 L 328.69,166.33 L 336.00,164.87 L 336.69,164.74 L 338.30,164.53 L 339.14,164.42 L 341.03,164.24 L 342.98,164.07 L 347.55,163.82 L 349.92,163.71 L 355.08,163.60 L 357.70,163.55 L 363.13,163.57 L 365.85,163.59 L 371.23,163.73 L 373.89,163.82 L 378.90,164.08 L 381.33,164.23 L 385.65,164.62 L 386.67,164.72 L 388.53,164.95 L 391.00,165.33 L 393.80,165.83 L 398.65,166.80 L 400.96,167.28 L 404.93,168.24 L 406.81,168.72 L 410.00,169.70 L 414.04,171.21 L 414.52,171.42 L 415.84,171.93 L 416.54,172.20 L 418.17,172.77 L 423.25,174.41 L 424.04,174.64 L 425.48,175.13 L 426.17,175.37 L 427.31,175.84 L 427.83,176.06 L 428.55,176.45 L 429.00,176.90 L 429.00,177.25 L 428.41,178.13 L 428.04,178.58 L 426.97,179.48 L 426.40,179.90 L 425.17,180.56 L 423.52,181.00 L 423.27,181.00 L 422.38,180.85 L 421.87,180.75 L 420.59,180.44 L 416.10,179.10 L 414.56,178.58 L 410.82,177.38 L 409.91,177.10 L 408.19,176.57 L 406.00,175.92 L 404.76,175.57 L 402.53,174.81 L 402.03,174.63 L 401.24,174.31 L 400.50,173.93 L 400.36,173.84 L 399.84,173.63 L 399.53,173.53 L 398.70,173.31 L 397.79,173.09 L 395.19,172.62 L 393.79,172.38 L 390.41,171.91 L 388.66,171.67 L 384.80,171.22 L 380.87,170.78 L 372.75,170.12 L 370.80,169.99 L 367.19,169.81 L 362.50,169.71 L 359.33,169.73 L 352.79,169.97 L 351.18,170.04 L 348.06,170.23 L 346.54,170.32 L 343.69,170.54 L 342.31,170.66 L 339.86,170.91 L 338.70,171.03 L 336.76,171.30 L 335.88,171.43 L 334.60,171.70 L 333.55,172.11 L 333.42,172.23 L 332.90,172.45 L 332.60,172.56 L 331.82,172.74 L 329.00,173.00 L 328.01,173.00 L 326.18,173.27 L 325.77,173.35 L 325.10,173.55 L 324.45,173.91 L 324.32,174.03 L 323.43,174.43 L 322.90,174.65 L 321.35,175.19 L 320.52,175.48 L 318.52,176.09 L 315.24,177.02 L 314.10,177.32 L 311.99,177.95 L 310.97,178.25 L 309.24,178.84 L 308.45,179.12 L 307.30,179.59 L 306.43,180.11 L 306.28,180.36 L 305.47,180.74 L 303.93,181.00 L 303.39,181.00 L 302.04,181.26 L 300.24,181.88 L 299.76,182.13 L 298.13,182.90 L 295.50,184.10 L 294.68,184.46 L 292.65,185.52 L 290.00,187.06 L 289.66,187.29 L 288.56,187.95 L 287.95,188.31 L 286.47,189.17 L 281.50,191.93 L 279.88,192.81 L 276.39,194.95 L 274.62,196.07 L 270.90,198.65 L 269.02,199.98 L 265.18,202.90 L 263.25,204.40 L 259.39,207.59 L 255.53,210.82 L 248.19,217.72 L 246.42,219.45 L 243.10,222.90 L 238.56,227.99 L 237.52,229.23 L 235.62,231.53 L 234.71,232.64 L 233.21,234.55 L 232.52,235.43 L 231.57,236.72 L 231.37,236.99 L 231.11,237.39 L 230.95,237.73 L 230.94,237.83 L 230.58,238.50 L 230.35,238.90 L 229.62,240.04 L 229.21,240.65 L 228.20,242.11 L 226.49,244.50 L 225.27,246.15 L 222.89,249.77 L 222.34,250.63 L 221.42,252.17 L 220.43,254.00 L 220.21,254.48 L 219.57,255.83 L 219.23,256.56 L 218.44,258.23 L 215.96,263.50 L 215.36,264.77 L 214.28,267.08 L 213.76,268.20 L 212.85,270.22 L 212.41,271.19 L 211.65,272.93 L 211.29,273.76 L 210.68,275.21 L 210.39,275.90 L 209.94,277.09 L 209.73,277.65 L 209.41,278.58 L 209.27,279.01 L 209.10,279.68 L 209.00,280.43 L 209.00,280.83 L 208.71,281.64 L 208.00,282.50 L 207.86,282.58 L 207.61,283.01 L 207.49,283.25 L 207.29,283.93 L 207.00,286.50 L 207.00,287.43 L 206.74,289.05 L 206.66,289.41 L 206.45,289.95 L 206.11,290.43 L 205.98,290.51 L 205.71,290.95 L 205.58,291.20 L 205.31,291.93 L 204.64,294.74 L 204.60,295.00 L 204.49,295.74 L 204.42,296.15 L 204.27,297.15 L 204.10,298.21 L 203.66,300.92 L 203.43,302.35 L 202.91,305.54 L 202.10,310.50 L 201.79,312.42 L 201.28,316.06 L 201.04,317.85 L 200.68,321.28 L 200.37,324.68 L 200.21,331.21 L 200.21,334.49 L 200.68,341.28 L 200.84,343.03 L 201.28,346.69 L 202.11,352.50 L 202.38,354.29 L 202.94,357.84 L 203.21,359.59 L 203.70,362.78 L 203.93,364.30 L 204.30,366.77 L 204.39,367.33 L 204.52,368.24 L 204.67,369.26 L 204.82,370.29 L 205.32,372.07 L 205.45,372.46 L 205.72,373.05 L 206.11,373.57 L 206.23,373.64 L 206.45,374.05 L 206.56,374.28 L 206.74,374.95 L 207.00,377.50 L 207.00,378.43 L 207.29,380.07 L 207.38,380.43 L 207.61,380.99 L 208.00,381.50 L 208.27,381.67 L 208.71,382.35 L 209.00,383.51 L 209.00,383.67 L 209.08,384.12 L 209.14,384.37 L 209.36,385.06 L 209.49,385.44 L 209.87,386.44 L 210.09,386.99 L 210.68,388.37 L 210.99,389.11 L 211.81,390.94 L 212.24,391.92 L 213.31,394.27 L 213.88,395.51 L 215.24,398.45 L 217.63,403.60 L 218.28,405.00 L 219.30,407.91 L 219.52,408.59 L 219.81,409.77 L 220.00,411.10 L 220.00,411.45 L 220.23,412.27 L 220.37,412.70 L 220.86,413.63 L 223.00,416.34 L 223.82,417.12 L 225.12,418.65 L 225.39,419.01 L 225.76,419.60 L 226.00,420.24 L 226.00,420.39 L 226.30,420.94 L 226.49,421.26 L 227.10,422.07 L 229.75,424.98 L 231.32,426.53 L 234.47,429.97 L 236.01,431.70 L 238.73,435.06 L 239.37,435.87 L 240.47,437.36 L 240.98,438.08 L 241.81,439.35 L 242.19,439.95 L 242.69,440.91 L 243.00,441.92 L 243.00,442.41 L 242.46,443.66 L 241.17,445.35 L 240.67,445.80 L 239.83,446.42 L 239.44,446.68 L 238.84,446.92 L 238.57,446.99 L 238.22,446.84 L 238.07,446.72 Z" fill="rgba(239,88,33,1)"/>
</g>
</svg>